<?xml version="1.0" encoding="UTF-8"?>
<svg version="1.1" xmlns="http://www.w3.org/2000/svg" width="194" height="194">
<path d="M0 0 C4.1706508 3.48808295 8.08461235 7.23108729 12 11 C12.65871094 11.58394531 13.31742188 12.16789062 13.99609375 12.76953125 C28.54265287 26.03948703 37.87422382 48.81050091 39.22314453 68.20898438 C40.43326591 95.35515559 35.57070522 120.84427503 16.94506836 141.67553711 C14.66912149 144.15527716 12.33423075 146.57505176 10 149 C9.12408203 149.98806641 9.12408203 149.98806641 8.23046875 150.99609375 C-5.03948703 165.54265287 -27.81050091 174.87422382 -47.20898438 176.22314453 C-65.26214067 177.02791771 -81.79113175 176.2277471 -98.09375 167.85546875 C-104.82837367 165.87309969 -112.7190861 168.44065012 -119.453125 169.84765625 C-121.22395329 170.20900909 -122.99478677 170.57033648 -124.765625 170.93164062 C-127.51981959 171.49869518 -130.27366777 172.06739542 -133.02734375 172.63696289 C-135.71012599 173.19040564 -138.39405523 173.73799766 -141.078125 174.28515625 C-141.89903625 174.45700943 -142.71994751 174.62886261 -143.56573486 174.80592346 C-144.33713806 174.96286179 -145.10854126 175.11980011 -145.90332031 175.28149414 C-146.91184052 175.49014854 -146.91184052 175.49014854 -147.94073486 175.70301819 C-150.31439659 176.04534145 -152.60504423 176.04792843 -155 176 C-154.45474865 169.37736112 -153.51329835 162.97809912 -152.1171875 156.484375 C-151.75099118 154.72141872 -151.38511502 152.95839591 -151.01953125 151.1953125 C-150.44642001 148.46034485 -149.86992567 145.72618482 -149.28759766 142.99316406 C-148.7213846 140.32543862 -148.1684761 137.65521846 -147.6171875 134.984375 C-147.44017303 134.17176208 -147.26315857 133.35914917 -147.08078003 132.52191162 C-145.64897984 125.5176527 -146.59762772 120.59836325 -149.375 114 C-158.59932336 90.07023361 -157.704758 63.15075588 -147.6875 39.625 C-142.26382389 27.67183572 -135.02999907 18.38094074 -126 9 C-125.41605469 8.34128906 -124.83210938 7.68257812 -124.23046875 7.00390625 C-93.69113732 -26.47338618 -34.55354552 -26.22004337 0 0 Z M-116.4140625 26.49609375 C-131.2514578 43.65342543 -137.45429382 64.41935183 -136 87 C-134.74465132 97.00325089 -132.27724845 107.19989992 -126.84765625 115.83203125 C-124.32546055 122.28280828 -126.56732312 129.6968929 -128 136.1875 C-128.379531 137.93000887 -128.75467636 139.6734799 -129.125 141.41796875 C-129.29257813 142.17875732 -129.46015625 142.9395459 -129.6328125 143.72338867 C-130.02959123 146.18346953 -130.06145803 148.51232165 -130 151 C-124.00793508 150.59112969 -118.25207764 149.68468765 -112.375 148.4375 C-102.05388734 146.37327747 -96.92883594 146.74607307 -87.31640625 151.46875 C-70.13877061 159.40000226 -49.41337609 158.87943824 -31.74609375 152.8984375 C-10.98346604 144.67824007 4.72889443 130.13412562 14.17480469 109.92724609 C22.32316678 90.89672232 22.27305601 68.84714631 14.6875 49.6875 C5.69745657 29.73333832 -8.8286793 14.63682087 -29 6 C-60.09592469 -5.57314689 -93.4895209 2.79256287 -116.4140625 26.49609375 Z " fill="#1DAA61" transform="translate(155,18)"/>
<path d="M0 0 C1.18851563 0.00902344 2.37703125 0.01804688 3.6015625 0.02734375 C4.51679687 0.03894531 5.43203125 0.05054688 6.375 0.0625 C17.6235886 21.99092834 17.6235886 21.99092834 17 27.1875 C14.794998 31.08865739 12.18631459 34.57929891 9.375 38.0625 C16.23377986 51.1666729 25.98424985 59.98589182 39.375 66.0625 C42.64095498 66.80169509 42.64095498 66.80169509 45.375 67.0625 C45.95507812 66.2684375 46.53515625 65.474375 47.1328125 64.65625 C47.91398437 63.6353125 48.69515625 62.614375 49.5 61.5625 C50.26570313 60.5415625 51.03140625 59.520625 51.8203125 58.46875 C54.375 56.0625 54.375 56.0625 57.07421875 55.453125 C61.79097 56.32390985 65.77060945 58.2174532 70.0625 60.3125 C70.91650391 60.70824219 71.77050781 61.10398438 72.65039062 61.51171875 C79.89299102 64.98224997 79.89299102 64.98224997 82.375 69.0625 C82.36777534 74.31482903 81.29267401 79.40362775 78.75 84 C70.2921154 91.34500504 62.60891456 92.86899768 51.55029297 92.28466797 C36.50888316 90.74845215 22.53350516 81.7011398 11.375 72.0625 C10.68921875 71.50949219 10.0034375 70.95648438 9.296875 70.38671875 C1.25637289 63.75488729 -4.85121374 55.50231493 -10.5 46.8125 C-10.86923584 46.246521 -11.23847168 45.68054199 -11.61889648 45.09741211 C-16.79031222 36.92907467 -19.69111616 28.79268688 -18.625 19.0625 C-16.87243083 11.93204716 -14.10775021 6.04397019 -8.625 1.0625 C-5.74084117 -0.37957941 -3.20778472 -0.03144887 0 0 Z " fill="#1DAA60" transform="translate(65.625,50.9375)"/>
</svg>
